<svg width="28" height="28" viewBox="0 0 28 28" fill="none" xmlns="http://www.w3.org/2000/svg">
<path d="M7.83993 10.6335L3.79962 14L7.83993 17.3666C7.97393 17.4764 8.08486 17.6117 8.16633 17.7646C8.24779 17.9174 8.29818 18.085 8.31459 18.2574C8.331 18.4299 8.31311 18.6039 8.26194 18.7694C8.21077 18.9349 8.12734 19.0887 8.01647 19.2218C7.90559 19.3549 7.76945 19.4647 7.61591 19.545C7.46237 19.6252 7.29447 19.6743 7.12188 19.6893C6.94929 19.7043 6.77543 19.685 6.61033 19.6326C6.44523 19.5801 6.29216 19.4954 6.15993 19.3835L0.909934 15.0085C0.762072 14.8853 0.643105 14.7311 0.561463 14.5568C0.47982 14.3826 0.4375 14.1925 0.4375 14C0.4375 13.8076 0.47982 13.6175 0.561463 13.4432C0.643105 13.269 0.762072 13.1148 0.909934 12.9916L6.15993 8.6166C6.42776 8.39711 6.77148 8.29235 7.1162 8.32516C7.46093 8.35796 7.77872 8.52566 8.00034 8.79173C8.22197 9.05779 8.32947 9.40066 8.29942 9.74564C8.26938 10.0906 8.10422 10.4097 7.83993 10.6335ZM27.0899 12.9916L21.8399 8.6166C21.7077 8.50466 21.5546 8.42001 21.3895 8.36752C21.2244 8.31503 21.0506 8.29574 20.878 8.31077C20.7054 8.32581 20.5375 8.37486 20.384 8.4551C20.2304 8.53534 20.0943 8.64519 19.9834 8.7783C19.8725 8.91141 19.7891 9.06516 19.7379 9.23067C19.6868 9.39618 19.6689 9.57019 19.6853 9.74265C19.7017 9.91512 19.7521 10.0826 19.8335 10.2355C19.915 10.3884 20.0259 10.5237 20.1599 10.6335L24.2002 14L20.1599 17.3666C20.0259 17.4764 19.915 17.6117 19.8335 17.7646C19.7521 17.9174 19.7017 18.085 19.6853 18.2574C19.6689 18.4299 19.6868 18.6039 19.7379 18.7694C19.7891 18.9349 19.8725 19.0887 19.9834 19.2218C20.0943 19.3549 20.2304 19.4647 20.384 19.545C20.5375 19.6252 20.7054 19.6743 20.878 19.6893C21.0506 19.7043 21.2244 19.685 21.3895 19.6326C21.5546 19.5801 21.7077 19.4954 21.8399 19.3835L27.0899 15.0085C27.2378 14.8853 27.3568 14.7311 27.4384 14.5568C27.52 14.3826 27.5624 14.1925 27.5624 14C27.5624 13.8076 27.52 13.6175 27.4384 13.4432C27.3568 13.269 27.2378 13.1148 27.0899 12.9916ZM17.9484 3.14129C17.7864 3.08237 17.6143 3.05594 17.4421 3.06353C17.2699 3.07111 17.1008 3.11254 16.9446 3.18547C16.7884 3.2584 16.6481 3.36138 16.5317 3.48855C16.4153 3.61571 16.3251 3.76457 16.2662 3.9266L9.26619 23.1766C9.14753 23.5037 9.1636 23.8645 9.31086 24.1797C9.45811 24.4949 9.72451 24.7388 10.0515 24.8577C10.1951 24.9107 10.3469 24.9377 10.4999 24.9375C10.7694 24.9376 11.0324 24.8547 11.2531 24.7001C11.4738 24.5455 11.6416 24.3267 11.7337 24.0735L18.7337 4.82348C18.7926 4.66146 18.819 4.48942 18.8114 4.31719C18.8039 4.14496 18.7624 3.97591 18.6895 3.8197C18.6166 3.66349 18.5136 3.52317 18.3864 3.40677C18.2593 3.29036 18.1104 3.20015 17.9484 3.14129Z" fill="#9EAEFF"/>
</svg>
