<svg width="50" height="50" viewBox="0 0 50 50" fill="none" xmlns="http://www.w3.org/2000/svg">
<path d="M24.9998 4.16669C22.264 4.16669 19.5549 4.70556 17.0273 5.75253C14.4996 6.7995 12.203 8.33407 10.2684 10.2686C6.36144 14.1756 4.1665 19.4747 4.1665 25C4.1665 34.2084 10.1457 42.0209 18.4165 44.7917C19.4582 44.9584 19.7915 44.3125 19.7915 43.75V40.2292C14.0207 41.4792 12.7915 37.4375 12.7915 37.4375C11.8332 35.0209 10.479 34.375 10.479 34.375C8.58317 33.0834 10.6248 33.125 10.6248 33.125C12.7082 33.2709 13.8123 35.2709 13.8123 35.2709C15.6248 38.4375 18.6873 37.5 19.8748 37C20.0623 35.6459 20.604 34.7292 21.1873 34.2084C16.5623 33.6875 11.7082 31.8959 11.7082 23.9584C11.7082 21.6459 12.4998 19.7917 13.854 18.3125C13.6457 17.7917 12.9165 15.625 14.0623 12.8125C14.0623 12.8125 15.8123 12.25 19.7915 14.9375C21.4373 14.4792 23.229 14.25 24.9998 14.25C26.7707 14.25 28.5623 14.4792 30.2082 14.9375C34.1873 12.25 35.9373 12.8125 35.9373 12.8125C37.0832 15.625 36.354 17.7917 36.1457 18.3125C37.4998 19.7917 38.2915 21.6459 38.2915 23.9584C38.2915 31.9167 33.4165 33.6667 28.7707 34.1875C29.5207 34.8334 30.2082 36.1042 30.2082 38.0417V43.75C30.2082 44.3125 30.5415 44.9792 31.604 44.7917C39.8748 42 45.8332 34.2084 45.8332 25C45.8332 22.2641 45.2943 19.5551 44.2473 17.0274C43.2004 14.4998 41.6658 12.2032 39.7312 10.2686C37.7967 8.33407 35.5 6.7995 32.9724 5.75253C30.4448 4.70556 27.7357 4.16669 24.9998 4.16669Z" fill="#D7E4FF"/>
</svg>
